<svg width="40" height="36" viewBox="0 0 40 36" fill="none" xmlns="http://www.w3.org/2000/svg">
<path d="M36 4H29.66L26 0H14L10.34 4H4C1.8 4 0 5.8 0 8V32C0 34.2 1.8 36 4 36H36C38.2 36 40 34.2 40 32V8C40 5.8 38.2 4 36 4ZM36 32H4V8H12.1L15.76 4H24.24L27.9 8H36V32ZM20 10C14.48 10 10 14.48 10 20C10 25.52 14.48 30 20 30C25.52 30 30 25.52 30 20C30 14.48 25.52 10 20 10ZM20 26C16.7 26 14 23.3 14 20C14 16.7 16.7 14 20 14C23.3 14 26 16.7 26 20C26 23.3 23.3 26 20 26Z" fill="#979C9E"/>
<path d="M36 4H29.66L26 0H14L10.34 4H4C1.8 4 0 5.8 0 8V32C0 34.2 1.8 36 4 36H36C38.2 36 40 34.2 40 32V8C40 5.8 38.2 4 36 4ZM36 32H4V8H12.1L15.76 4H24.24L27.9 8H36V32ZM20 10C14.48 10 10 14.48 10 20C10 25.52 14.48 30 20 30C25.52 30 30 25.52 30 20C30 14.48 25.52 10 20 10ZM20 26C16.7 26 14 23.3 14 20C14 16.7 16.7 14 20 14C23.3 14 26 16.7 26 20C26 23.3 23.3 26 20 26Z" fill="black" fill-opacity="0.2"/>
</svg>
